PathFileType	4	(X/Y/Z)	C:\Users\Basilio\Documents\Thesis Gigler\squatting_fais\c3dfiles\047\SLS_pre_back5\markers_experimental.trc
DataRate	CameraRate	NumFrames	NumMarkers	Units	OrigDataRate	OrigDataStartFrame	OrigNumFrames
200.000000	200.000000	4	62	mm	200.000000	489	1304
Frame#	Time	FHD			LBHD			RBHD			C7			T10			CLAV			LSHO			LUUPA			LMUPA			LDUPA			LLEP			LMEP			LRAD			LUL			LRFIN			RSHO			RUPA1			RMUPA			RDUPA			RLEP			RMEP			RRAD			RUFIN			LASI			RASI			USACR			LSACR			RSACR			LTHI1			LTHI2			LTHI3			LTHI4			LLFC			LMFC			LTIB1			LTIB2			LTIB3			LTIB4			LLMAL			LMMAL			LMT1			LMT2			LMT5			RTHI			RTHI2			RTHI3			RTHI4			RLFC			RMFC			RTIB1			RTIB2			RTIB3			RTIB4			RLMAL			RMMAL			RHEE			RMT1			RMT2			RMT5			RUL			*60			*61			
		X1	Y1	Z1	X2	Y2	Z2	X3	Y3	Z3	X4	Y4	Z4	X5	Y5	Z5	X6	Y6	Z6	X7	Y7	Z7	X8	Y8	Z8	X9	Y9	Z9	X10	Y10	Z10	X11	Y11	Z11	X12	Y12	Z12	X13	Y13	Z13	X14	Y14	Z14	X15	Y15	Z15	X16	Y16	Z16	X17	Y17	Z17	X18	Y18	Z18	X19	Y19	Z19	X20	Y20	Z20	X21	Y21	Z21	X22	Y22	Z22	X23	Y23	Z23	X24	Y24	Z24	X25	Y25	Z25	X26	Y26	Z26	X27	Y27	Z27	X28	Y28	Z28	X29	Y29	Z29	X30	Y30	Z30	X31	Y31	Z31	X32	Y32	Z32	X33	Y33	Z33	X34	Y34	Z34	X35	Y35	Z35	X36	Y36	Z36	X37	Y37	Z37	X38	Y38	Z38	X39	Y39	Z39	X40	Y40	Z40	X41	Y41	Z41	X42	Y42	Z42	X43	Y43	Z43	X44	Y44	Z44	X45	Y45	Z45	X46	Y46	Z46	X47	Y47	Z47	X48	Y48	Z48	X49	Y49	Z49	X50	Y50	Z50	X51	Y51	Z51	X52	Y52	Z52	X53	Y53	Z53	X54	Y54	Z54	X55	Y55	Z55	X56	Y56	Z56	X57	Y57	Z57	X58	Y58	Z58	X59	Y59	Z59	X60	Y60	Z60	X61	Y61	Z61	X62	Y62	Z62	

490	2.445	-13.42518901824952	1532.85205078125	-1127.885864257813	-193.5769805908204	1502.213134765625	-1142.971069335938	-162.2294464111328	1507.094360351563	-997.7822875976565	-227.1045379638672	1351.953369140625	-1061.067138671875	-364.3152465820313	1086.941650390625	-1008.912353515625	-104.7963104248047	1251.751220703125	-1100.394897460938	-183.9781646728516	1291.218017578125	-1243.539428710938	-158.4115142822266	1141.905517578125	-1354.109741210938	-111.4193420410157	1161.186279296875	-1357.119506835938	-102.5333251953125	1104.234130859375	-1374.368896484375	-33.78644180297852	1082.174926757813	-1390.17919921875	-43.89850616455079	1030.2763671875	-1311.87939453125	135.6689910888672	1191.12109375	-1228.658325195313	173.3711700439453	1125.79150390625	-1231.01904296875	225.4679565429688	1200.33251953125	-1236.1435546875	-98.92691802978518	1303.013793945313	-946.590515136719	-7.738522052764894	1160.49560546875	-853.2957763671877	28.9265422821045	1175.357543945313	-881.9395751953127	48.51021957397462	1120.377075195313	-865.5665283203127	115.8816757202149	1097.461303710938	-894.2893066406252	71.13864135742189	1033.828735351563	-941.7438964843752	238.4531250000001	1126.196655273438	-1126.66259765625	218.1807708740235	1214.17138671875	-1144.80859375	-299.8500061035157	820.479187011719	-1097.9189453125	-275.5793457031251	833.8503417968752	-872.3907470703127	-430.6475524902345	964.6287231445315	-981.8714599609377	-452.1408691406251	937.5343017578127	-1007.178955078125	-443.1416625976564	939.366394042969	-948.9338989257815	-351.4488525390626	707.1842651367189	-1174.19921875	-277.1038818359376	667.2968139648439	-1181.92578125	-239.1572570800782	696.7696533203126	-1170.862915039063	-267.0247192382813	608.0648193359376	-1185.811157226563	-184.6627197265625	463.4220581054689	-1161.83203125	-142.3883056640625	470.4744262695314	-1043.010009765625	-197.8452453613282	304.4808349609376	-1044.356201171875	-221.4424591064454	255.6720275878907	-1111.895629882813	-210.434066772461	251.6434936523438	-1065.74365234375	-257.2398986816407	195.0369567871094	-1026.2841796875	-344.2295227050782	121.3853530883789	-1063.142211914063	-318.0232238769532	142.6127166748047	-976.699645996094	-209.4101562500001	63.33895111083986	-991.9733886718752	-210.0474243164063	60.55328369140626	-1036.942016601563	-259.0600280761719	49.33282852172853	-1080.664672851563	-357.2536010742188	678.2380981445314	-765.2962036132814	-314.6704406738282	626.7306518554689	-763.0691528320314	-285.9859924316407	627.7936401367189	-777.8243408203127	-335.8215332031251	545.3961791992189	-755.0044555664064	-329.6315002441407	413.4141845703126	-770.4519653320315	-339.3152465820313	388.2591247558595	-900.889343261719	-426.409149169922	337.0001831054688	-773.1892089843752	-514.8041992187501	391.6090393066407	-732.6560058593751	-507.2756958007814	345.5968627929688	-740.7316284179689	-556.6309814453126	324.0520629882813	-766.4629516601564	-711.4964599609376	367.2614135742188	-727.5001220703126	-700.8947753906251	330.2200317382813	-812.0276489257815	-738.4020996093751	418.9802856445314	-786.8663330078127	-783.8228149414065	216.0654602050782	-786.1871337890627	-780.2335205078127	211.8241577148438	-736.7430419921876	-802.3474731445315	268.8489379882813	-690.2055664062501	nan	nan	nan	nan	nan	nan	nan	nan	nan	
491	2.45	-12.58973121643067	1530.984985351563	-1128.01513671875	-192.546127319336	1500.700927734375	-1143.10205078125	-161.5177459716797	1505.379028320313	-997.9221191406252	-226.5802764892579	1350.717407226563	-1061.094604492188	-364.6470336914063	1086.076782226563	-1009.186706542969	-104.0543518066407	1250.118896484375	-1100.43115234375	-183.3026885986328	1289.593139648438	-1243.646484375	-158.4172515869141	1140.658081054688	-1354.253173828125	-110.6613006591797	1159.496704101563	-1357.312377929688	-102.2902221679688	1102.542114257813	-1374.551635742188	-33.42825317382813	1080.61865234375	-1390.186889648438	-43.6954689025879	1028.727294921875	-1311.947631835938	136.0493927001953	1189.299194335938	-1228.7509765625	173.6651153564453	1123.607055664063	-1231.083618164063	225.7673339843751	1198.442016601563	-1236.140747070313	-98.20889282226565	1301.591430664063	-946.9094848632815	-7.223330020904543	1158.94091796875	-853.2633056640627	29.57506370544434	1173.417602539063	-881.4432373046877	49.05213165283205	1118.766235351563	-865.4104003906252	116.4889068603516	1095.515502929688	-894.7281494140627	71.4739456176758	1032.181030273438	-941.9228515625002	238.5079803466797	1123.97998046875	-1126.404296875	218.5991821289063	1211.8955078125	-1144.364624023438	-300.1689147949219	819.422302246094	-1097.801513671875	-276.1156921386719	832.9403076171877	-871.9563598632815	-431.0486145019532	963.9877929687502	-981.8188476562502	-452.2859497070314	936.822204589844	-1007.195251464844	-443.5816345214845	938.6516723632815	-948.8894653320315	-351.7032165527344	706.4037475585939	-1173.957763671875	-277.2311706542969	666.9415893554689	-1181.7802734375	-239.4426422119141	696.4656982421876	-1170.588134765625	-267.0461120605469	607.5036010742189	-1185.697875976563	-184.4222564697266	463.2141418457032	-1161.725219726563	-142.0673522949219	470.413543701172	-1043.283569335938	-197.7088928222657	304.3068847656251	-1044.14111328125	-221.3225097656251	255.5615997314454	-1111.70703125	-210.4097137451172	251.5396423339844	-1065.547607421875	-257.1953735351563	194.9784545898438	-1026.214721679688	-344.2735900878907	121.3675079345703	-1063.117431640625	-318.1469116210938	142.5860900878907	-976.6406250000002	-209.4305114746094	63.33072662353517	-992.0175781250002	-209.8168487548829	60.21336746215822	-1036.97607421875	-259.0466003417969	49.29346084594728	-1080.673217773438	-357.8316955566407	677.4722290039064	-765.4353027343751	-315.7133178710938	625.7995605468751	-763.2044067382814	-286.5973815917969	626.8088378906251	-777.5161743164065	-336.7893066406251	544.4553833007814	-754.6568603515626	-330.7263488769532	412.2371215820314	-770.4478149414065	-339.4621276855469	387.3162231445314	-900.8238525390627	-427.623748779297	336.2070007324219	-773.2026367187502	-515.7027587890626	390.8543395996095	-732.5925292968751	-508.5409240722657	344.8547058105469	-740.5322875976564	-557.9573364257814	323.4770812988282	-766.0779418945314	-712.5322875976564	366.8228454589844	-727.5539550781251	-702.1394653320314	329.5969238281251	-811.7104492187502	-739.1967773437501	418.4334106445314	-787.1197509765627	-784.8865966796877	215.3335723876954	-785.5285644531252	-782.0512695312502	211.8426818847657	-737.2089233398439	-803.3137817382815	268.8829956054688	-690.2527465820314	nan	nan	nan	nan	nan	nan	nan	nan	nan	
492	2.455	-11.49711513519287	1529.734619140625	-1128.232055664063	-191.5440979003907	1499.131591796875	-1143.283813476563	-160.8299560546875	1503.521728515625	-997.7703857421877	-225.5894317626954	1349.332153320313	-1061.34765625	-364.2002868652344	1085.041748046875	-1008.971069335938	-103.6492156982422	1248.473022460938	-1100.612915039063	-182.5006256103516	1288.187377929688	-1243.82861328125	-157.5812683105469	1138.992553710938	-1354.340942382813	-110.2911987304688	1158.105224609375	-1357.484130859375	-101.867904663086	1101.175170898438	-1374.491088867188	-33.14001083374024	1078.823364257813	-1390.277221679688	-43.33624267578126	1026.645263671875	-1311.96240234375	136.4473724365235	1187.218872070313	-1228.709838867188	173.9547119140625	1121.678833007813	-1231.030639648438	226.2423248291016	1196.49755859375	-1236.1435546875	-97.42575836181643	1299.639038085938	-946.8337402343752	-6.428811073303224	1157.522583007813	-853.2593383789065	30.27575111389161	1171.854858398438	-882.0361328125002	49.43213653564455	1116.95751953125	-865.2845458984377	116.7477493286133	1093.614624023438	-894.5585937500002	71.78988647460939	1030.144775390625	-941.6018066406252	238.9754180908204	1122.015258789063	-1126.660034179688	219.0487060546876	1210.07470703125	-1144.570434570313	-300.5353393554688	818.391540527344	-1097.50830078125	-276.4781188964844	831.868591308594	-871.8972778320315	-431.164764404297	962.9560546875002	-981.7143554687502	-452.4827575683595	935.9407348632815	-1007.122924804688	-443.8204956054689	938.0054931640627	-948.837829589844	-352.0334167480469	705.7714843750001	-1173.734130859375	-277.3725585937501	666.4922485351564	-1181.585693359375	-239.5709381103516	696.0565795898439	-1170.408447265625	-267.1231994628907	607.0699462890626	-1185.425537109375	-184.1622314453125	463.0477294921876	-1161.541748046875	-141.6740264892578	470.2023925781251	-1042.716918945313	-197.6128082275391	304.1656494140626	-1043.958984375	-221.2510528564454	255.4312133789063	-1111.547119140625	-210.3611297607422	251.3440093994141	-1065.376708984375	-257.1384277343751	194.8475494384766	-1026.232788085938	-344.3246459960938	121.3494567871094	-1063.0986328125	-318.2797546386719	142.4281005859375	-976.5577392578127	-209.5126037597657	63.317195892334	-991.962829589844	-209.8152465820313	60.25177001953126	-1036.975341796875	-259.1297912597657	49.34299087524415	-1080.687744140625	-358.8795471191407	676.4547119140626	-765.0117187500001	-316.3236694335938	624.8830566406251	-762.6837158203126	-287.4598693847657	625.6687622070314	-777.3320922851565	-337.6424255371094	543.3936157226564	-754.7849121093751	-331.5713500976563	411.3242187500001	-770.6550903320315	-340.2926940917969	386.5574645996095	-900.9633789062502	-428.7154846191407	335.3766479492188	-772.755798339844	-517.0794677734376	390.1766357421876	-732.2066650390626	-509.6253051757814	344.3029479980469	-740.6127929687501	-558.7563476562501	322.6555480957032	-766.7117919921876	-713.7158203125001	366.3616943359376	-727.6926269531251	-703.1639404296876	329.4656066894532	-812.1324462890627	-740.0611572265626	417.998748779297	-787.2304687500002	-786.8750000000002	215.134506225586	-785.5535278320315	-783.1797485351565	211.6002960205079	-736.4598999023439	-804.7980957031252	268.7967834472657	-689.8812866210939	nan	nan	nan	nan	nan	nan	nan	nan	nan	
493	2.46	-11.05120754241944	1527.612915039063	-1127.7353515625	-190.6589660644532	1497.461059570313	-1143.368041992188	-159.6412811279297	1502.287963867188	-998.256774902344	-224.7139587402344	1347.917602539063	-1061.502563476563	-363.8730163574219	1084.177124023438	-1008.921142578125	-102.9686050415039	1247.021484375	-1100.8447265625	-182.4990997314453	1286.736206054688	-1243.705322265625	-157.357421875	1137.60986328125	-1354.427734375	-109.7908477783203	1156.485961914063	-1357.357299804688	-101.440299987793	1099.461303710938	-1374.698974609375	-32.60342025756837	1077.175415039063	-1390.446533203125	-42.85522079467774	1025.206298828125	-1312.107666015625	136.895248413086	1185.554931640625	-1228.83056640625	173.9869689941407	1119.587768554688	-1230.832641601563	226.5392150878907	1194.561889648438	-1236.088134765625	-96.6479187011719	1298.45654296875	-947.0698242187502	-6.048251628875734	1155.625854492188	-852.9727172851565	30.88237571716309	1170.223388671875	-882.3120727539065	49.93088912963869	1115.31103515625	-865.332946777344	117.2271423339844	1091.930053710938	-894.5046386718752	72.02861785888673	1028.3203125	-941.550720214844	239.4019165039063	1119.912475585938	-1126.91162109375	219.5059814453126	1208.238159179688	-1144.626220703125	-300.7074890136719	817.3923950195315	-1097.428344726563	-276.5693054199219	830.9193115234377	-871.8533325195315	-431.3004760742189	962.107604980469	-981.6773071289065	-452.7545776367189	935.0142211914065	-1007.100524902344	-443.8933410644532	937.0364379882815	-948.8072509765627	-352.2878112792969	705.0554199218751	-1173.49560546875	-277.6257629394532	666.0431518554689	-1181.363159179688	-240.4017639160157	695.9748535156251	-1170.20654296875	-267.0427856445313	606.6724853515626	-1185.260009765625	-183.843017578125	462.8672790527345	-1161.301147460938	-141.4867095947266	469.9179687500001	-1042.089111328125	-197.545150756836	303.9238281250001	-1043.451416015625	-221.1305847167969	255.3338470458985	-1111.148681640625	-210.2757110595704	251.2165069580079	-1065.029418945313	-257.2023315429688	194.7424774169922	-1025.969848632813	-344.4005432128907	121.3023681640625	-1063.030639648438	-318.3993835449219	142.3327789306641	-976.4251098632815	-209.4861755371094	63.3144874572754	-991.9072875976565	-209.753646850586	60.33271789550783	-1036.984619140625	-258.9974670410157	49.41025161743165	-1080.638549804688	-359.5853576660157	675.7520141601564	-764.8438110351564	-316.9837646484376	623.7026367187501	-762.7550048828126	-288.3638000488282	624.8834228515626	-776.8260498046877	-338.6235351562501	542.5903930664064	-754.4931030273439	-332.8869323730469	410.3325195312501	-770.6124267578127	-341.2828063964844	385.6637573242189	-900.709899902344	-429.9357299804689	334.6053161621094	-772.415222167969	-517.9066162109376	389.434539794922	-732.5914916992189	-510.9639282226564	343.4756164550782	-740.6029663085939	-560.2235107421876	322.0583190917969	-766.2788696289064	-714.4410400390626	365.9458923339844	-727.9991455078126	-704.3209838867189	328.4254760742188	-811.9075927734377	-741.0484008789064	417.5204467773439	-787.3010864257815	-787.9899902343752	215.3685913085938	-785.4988403320315	-784.6730957031252	211.2089538574219	-735.7670898437501	-805.6882324218752	268.6866455078126	-689.9363403320314	nan	nan	nan	nan	nan	nan	nan	nan	nan	
